<mxfile host="app.diagrams.net" modified="2024-03-08T02:43:10.855Z" agent="Mozilla/5.0 (iPad; CPU OS 15_7_8 like Mac OS X) AppleWebKit/605.1.15 (KHTML, like Gecko) Version/15.6.6 Mobile/15E148 Safari/604.1" version="24.0.2" etag="cfKpI2twSjl48Iu-4Eyu" type="github">
  <diagram name="Page-1" id="TkoggEcdMCtrwPbgRl6I">
    <mxGraphModel>
      <root>
        <mxCell id="0" />
        <mxCell id="1" parent="0" />
      </root>
    </mxGraphModel>
  </diagram>
</mxfile>
